<?xml version="1.0" encoding="UTF-8" standalone="no"?>
<!DOCTYPE svg PUBLIC "-//W3C//DTD SVG 1.1//EN"
 "http://www.w3.org/Graphics/SVG/1.1/DTD/svg11.dtd">
<!-- Generated by graphviz version 2.44.1 (20200629.0846)
 -->
<!-- Title: dependencies Pages: 1 -->
<svg width="1352pt" height="284pt"
 viewBox="0.00 0.00 1352.00 284.00" xmlns="http://www.w3.org/2000/svg" xmlns:xlink="http://www.w3.org/1999/xlink">
<g id="graph0" class="graph" transform="scale(1 1) rotate(0) translate(4 280)">
<title>dependencies</title>
<polygon fill="white" stroke="transparent" points="-4,4 -4,-280 1348,-280 1348,4 -4,4"/>
<text text-anchor="start" x="651.01" y="-42.4" font-family="sans-serif" font-weight="bold" font-size="14.00">Legend</text>
<polygon fill="#ffffb3" stroke="transparent" points="438,-10 438,-30 458,-30 458,-10 438,-10"/>
<text text-anchor="start" x="461.63" y="-15.4" font-family="sans-serif" font-size="14.00"> &#160;Declarations</text>
<polygon fill="#8dd3c7" stroke="transparent" points="551,-10 551,-30 571,-30 571,-10 551,-10"/>
<text text-anchor="start" x="574.73" y="-15.4" font-family="sans-serif" font-size="14.00"> &#160;Module</text>
<polygon fill="#80b1d3" stroke="transparent" points="637,-10 637,-30 657,-30 657,-10 637,-10"/>
<text text-anchor="start" x="660.78" y="-15.4" font-family="sans-serif" font-size="14.00"> &#160;Bootstrap</text>
<polygon fill="#fdb462" stroke="transparent" points="734,-10 734,-30 754,-30 754,-10 734,-10"/>
<text text-anchor="start" x="757.67" y="-15.4" font-family="sans-serif" font-size="14.00"> &#160;Providers</text>
<polygon fill="#fb8072" stroke="transparent" points="830,-10 830,-30 850,-30 850,-10 830,-10"/>
<text text-anchor="start" x="853.73" y="-15.4" font-family="sans-serif" font-size="14.00"> &#160;Exports</text>
<g id="clust1" class="cluster">
<title>cluster_AppModule</title>
<polygon fill="none" stroke="black" stroke-dasharray="1,5" points="8,-70 8,-268 1336,-268 1336,-70 8,-70"/>
</g>
<g id="clust12" class="cluster">
<title>cluster_AppModule_bootstrap</title>
<polygon fill="none" stroke="black" points="637,-208 637,-260 761,-260 761,-208 637,-208"/>
</g>
<g id="clust13" class="cluster">
<title>cluster_AppModule_providers</title>
<polygon fill="none" stroke="black" points="1164,-78 1164,-130 1328,-130 1328,-78 1164,-78"/>
</g>
<g id="clust2" class="cluster">
<title>cluster_AppModule_declarations</title>
<polygon fill="none" stroke="black" points="168,-78 168,-130 1156,-130 1156,-78 168,-78"/>
</g>
<g id="clust10" class="cluster">
<title>cluster_AppModule_imports</title>
<polygon fill="none" stroke="black" points="16,-78 16,-130 160,-130 160,-78 16,-78"/>
</g>
<!-- AppComponent -->
<g id="node1" class="node">
<title>AppComponent</title>
<polygon fill="#ffffb3" stroke="black" points="1147.94,-122 1042.06,-122 1042.06,-86 1147.94,-86 1147.94,-122"/>
<text text-anchor="middle" x="1095" y="-99.8" font-family="Times,serif" font-size="14.00">AppComponent</text>
</g>
<!-- AppModule -->
<g id="node8" class="node">
<title>AppModule</title>
<polygon fill="#8dd3c7" stroke="black" points="740.66,-187 737.66,-191 716.66,-191 713.66,-187 657.34,-187 657.34,-151 740.66,-151 740.66,-187"/>
<text text-anchor="middle" x="699" y="-164.8" font-family="Times,serif" font-size="14.00">AppModule</text>
</g>
<!-- AppComponent&#45;&gt;AppModule -->
<g id="edge1" class="edge">
<title>AppComponent&#45;&gt;AppModule</title>
<path fill="none" stroke="black" d="M1095,-122.13C1095,-142.57 1095,-173 1095,-173 1095,-173 751,-173 751,-173"/>
<polygon fill="black" stroke="black" points="751,-169.5 741,-173 751,-176.5 751,-169.5"/>
</g>
<!-- ErrorComponent -->
<g id="node2" class="node">
<title>ErrorComponent</title>
<polygon fill="#ffffb3" stroke="black" points="1024.37,-122 913.63,-122 913.63,-86 1024.37,-86 1024.37,-122"/>
<text text-anchor="middle" x="969" y="-99.8" font-family="Times,serif" font-size="14.00">ErrorComponent</text>
</g>
<!-- ErrorComponent&#45;&gt;AppModule -->
<g id="edge2" class="edge">
<title>ErrorComponent&#45;&gt;AppModule</title>
<path fill="none" stroke="black" d="M969,-122.27C969,-140.56 969,-166 969,-166 969,-166 750.89,-166 750.89,-166"/>
<polygon fill="black" stroke="black" points="750.89,-162.5 740.89,-166 750.89,-169.5 750.89,-162.5"/>
</g>
<!-- HeaderComponent -->
<g id="node3" class="node">
<title>HeaderComponent</title>
<polygon fill="#ffffb3" stroke="black" points="895.74,-122 774.26,-122 774.26,-86 895.74,-86 895.74,-122"/>
<text text-anchor="middle" x="835" y="-99.8" font-family="Times,serif" font-size="14.00">HeaderComponent</text>
</g>
<!-- HeaderComponent&#45;&gt;AppModule -->
<g id="edge3" class="edge">
<title>HeaderComponent&#45;&gt;AppModule</title>
<path fill="none" stroke="black" d="M835,-122.01C835,-138.05 835,-159 835,-159 835,-159 750.91,-159 750.91,-159"/>
<polygon fill="black" stroke="black" points="750.91,-155.5 740.91,-159 750.91,-162.5 750.91,-155.5"/>
</g>
<!-- LoginComponent -->
<g id="node4" class="node">
<title>LoginComponent</title>
<polygon fill="#ffffb3" stroke="black" points="756.28,-122 641.72,-122 641.72,-86 756.28,-86 756.28,-122"/>
<text text-anchor="middle" x="699" y="-99.8" font-family="Times,serif" font-size="14.00">LoginComponent</text>
</g>
<!-- LoginComponent&#45;&gt;AppModule -->
<g id="edge4" class="edge">
<title>LoginComponent&#45;&gt;AppModule</title>
<path fill="none" stroke="black" d="M699,-122.11C699,-122.11 699,-140.99 699,-140.99"/>
<polygon fill="black" stroke="black" points="695.5,-140.99 699,-150.99 702.5,-140.99 695.5,-140.99"/>
</g>
<!-- MoviesComponent -->
<g id="node5" class="node">
<title>MoviesComponent</title>
<polygon fill="#ffffb3" stroke="black" points="623.83,-122 500.17,-122 500.17,-86 623.83,-86 623.83,-122"/>
<text text-anchor="middle" x="562" y="-99.8" font-family="Times,serif" font-size="14.00">MoviesComponent</text>
</g>
<!-- MoviesComponent&#45;&gt;AppModule -->
<g id="edge5" class="edge">
<title>MoviesComponent&#45;&gt;AppModule</title>
<path fill="none" stroke="black" d="M562,-122.01C562,-138.05 562,-159 562,-159 562,-159 647.15,-159 647.15,-159"/>
<polygon fill="black" stroke="black" points="647.15,-162.5 657.15,-159 647.15,-155.5 647.15,-162.5"/>
</g>
<!-- ProfileUpdateComponent -->
<g id="node6" class="node">
<title>ProfileUpdateComponent</title>
<polygon fill="#ffffb3" stroke="black" points="481.86,-122 322.14,-122 322.14,-86 481.86,-86 481.86,-122"/>
<text text-anchor="middle" x="402" y="-99.8" font-family="Times,serif" font-size="14.00">ProfileUpdateComponent</text>
</g>
<!-- ProfileUpdateComponent&#45;&gt;AppModule -->
<g id="edge6" class="edge">
<title>ProfileUpdateComponent&#45;&gt;AppModule</title>
<path fill="none" stroke="black" d="M402,-122.27C402,-140.56 402,-166 402,-166 402,-166 647.08,-166 647.08,-166"/>
<polygon fill="black" stroke="black" points="647.08,-169.5 657.08,-166 647.08,-162.5 647.08,-169.5"/>
</g>
<!-- RegisterComponent -->
<g id="node7" class="node">
<title>RegisterComponent</title>
<polygon fill="#ffffb3" stroke="black" points="303.98,-122 176.02,-122 176.02,-86 303.98,-86 303.98,-122"/>
<text text-anchor="middle" x="240" y="-99.8" font-family="Times,serif" font-size="14.00">RegisterComponent</text>
</g>
<!-- RegisterComponent&#45;&gt;AppModule -->
<g id="edge7" class="edge">
<title>RegisterComponent&#45;&gt;AppModule</title>
<path fill="none" stroke="black" d="M240,-122.13C240,-142.57 240,-173 240,-173 240,-173 647.05,-173 647.05,-173"/>
<polygon fill="black" stroke="black" points="647.05,-176.5 657.05,-173 647.05,-169.5 647.05,-176.5"/>
</g>
<!-- AppComponent  -->
<g id="node10" class="node">
<title>AppComponent </title>
<polygon fill="#80b1d3" stroke="black" points="753.44,-252 644.56,-252 644.56,-216 753.44,-216 753.44,-252"/>
<text text-anchor="middle" x="699" y="-229.8" font-family="Times,serif" font-size="14.00">AppComponent </text>
</g>
<!-- AppModule&#45;&gt;AppComponent  -->
<g id="edge9" class="edge">
<title>AppModule&#45;&gt;AppComponent </title>
<path fill="none" stroke="black" stroke-dasharray="1,5" d="M699,-187.11C699,-187.11 699,-205.99 699,-205.99"/>
<polygon fill="black" stroke="black" points="695.5,-205.99 699,-215.99 702.5,-205.99 695.5,-205.99"/>
</g>
<!-- AppRoutingModule -->
<g id="node9" class="node">
<title>AppRoutingModule</title>
<polygon fill="#8dd3c7" stroke="black" points="152.27,-122 149.27,-126 128.27,-126 125.27,-122 23.73,-122 23.73,-86 152.27,-86 152.27,-122"/>
<text text-anchor="middle" x="88" y="-99.8" font-family="Times,serif" font-size="14.00">AppRoutingModule</text>
</g>
<!-- AppRoutingModule&#45;&gt;AppModule -->
<g id="edge8" class="edge">
<title>AppRoutingModule&#45;&gt;AppModule</title>
<path fill="none" stroke="black" d="M88,-122.01C88,-144.49 88,-180 88,-180 88,-180 647,-180 647,-180"/>
<polygon fill="black" stroke="black" points="647,-183.5 657,-180 647,-176.5 647,-183.5"/>
</g>
<!-- ErrorInterceptor -->
<g id="node11" class="node">
<title>ErrorInterceptor</title>
<ellipse fill="#fdb462" stroke="black" cx="1246" cy="-104" rx="73.53" ry="18"/>
<text text-anchor="middle" x="1246" y="-99.8" font-family="Times,serif" font-size="14.00">ErrorInterceptor</text>
</g>
<!-- ErrorInterceptor&#45;&gt;AppModule -->
<g id="edge10" class="edge">
<title>ErrorInterceptor&#45;&gt;AppModule</title>
<path fill="none" stroke="black" d="M1246,-122.01C1246,-144.49 1246,-180 1246,-180 1246,-180 751.01,-180 751.01,-180"/>
<polygon fill="black" stroke="black" points="751.01,-176.5 741.01,-180 751.01,-183.5 751.01,-176.5"/>
</g>
</g>
</svg>
