<?xml version="1.0" encoding="UTF-8" standalone="no"?>
<!DOCTYPE svg PUBLIC "-//W3C//DTD SVG 1.1//EN"
 "http://www.w3.org/Graphics/SVG/1.1/DTD/svg11.dtd">
<!-- Generated by graphviz version 2.44.1 (20200629.0846)
 -->
<!-- Title: dependencies Pages: 1 -->
<svg width="1352pt" height="284pt"
 viewBox="0.00 0.00 1352.00 284.00" xmlns="http://www.w3.org/2000/svg" xmlns:xlink="http://www.w3.org/1999/xlink">
<g id="graph0" class="graph" transform="scale(1 1) rotate(0) translate(4 280)">
<title>dependencies</title>
<polygon fill="white" stroke="transparent" points="-4,4 -4,-280 1348,-280 1348,4 -4,4"/>
<text text-anchor="start" x="651.01" y="-42.4" font-family="sans-serif" font-weight="bold" font-size="14.00">Legend</text>
<polygon fill="#ffffb3" stroke="transparent" points="438,-10 438,-30 458,-30 458,-10 438,-10"/>
<text text-anchor="start" x="461.63" y="-15.4" font-family="sans-serif" font-size="14.00"> &#160;Declarations</text>
<polygon fill="#8dd3c7" stroke="transparent" points="551,-10 551,-30 571,-30 571,-10 551,-10"/>
<text text-anchor="start" x="574.73" y="-15.4" font-family="sans-serif" font-size="14.00"> &#160;Module</text>
<polygon fill="#80b1d3" stroke="transparent" points="637,-10 637,-30 657,-30 657,-10 637,-10"/>
<text text-anchor="start" x="660.78" y="-15.4" font-family="sans-serif" font-size="14.00"> &#160;Bootstrap</text>
<polygon fill="#fdb462" stroke="transparent" points="734,-10 734,-30 754,-30 754,-10 734,-10"/>
<text text-anchor="start" x="757.67" y="-15.4" font-family="sans-serif" font-size="14.00"> &#160;Providers</text>
<polygon fill="#fb8072" stroke="transparent" points="830,-10 830,-30 850,-30 850,-10 830,-10"/>
<text text-anchor="start" x="853.73" y="-15.4" font-family="sans-serif" font-size="14.00"> &#160;Exports</text>
<g id="clust1" class="cluster">
<title>cluster_AppModule</title>
<polygon fill="none" stroke="black" stroke-dasharray="1,5" points="8,-70 8,-268 1336,-268 1336,-70 8,-70"/>
</g>
<g id="clust2" class="cluster">
<title>cluster_AppModule_declarations</title>
<polygon fill="none" stroke="black" points="340,-78 340,-130 1328,-130 1328,-78 340,-78"/>
</g>
<g id="clust10" class="cluster">
<title>cluster_AppModule_imports</title>
<polygon fill="none" stroke="black" points="188,-78 188,-130 332,-130 332,-78 188,-78"/>
</g>
<g id="clust12" class="cluster">
<title>cluster_AppModule_bootstrap</title>
<polygon fill="none" stroke="black" points="672,-208 672,-260 796,-260 796,-208 672,-208"/>
</g>
<g id="clust13" class="cluster">
<title>cluster_AppModule_providers</title>
<polygon fill="none" stroke="black" points="16,-78 16,-130 180,-130 180,-78 16,-78"/>
</g>
<!-- AppComponent -->
<g id="node1" class="node">
<title>AppComponent</title>
<polygon fill="#ffffb3" stroke="black" points="1319.94,-122 1214.06,-122 1214.06,-86 1319.94,-86 1319.94,-122"/>
<text text-anchor="middle" x="1267" y="-99.8" font-family="Times,serif" font-size="14.00">AppComponent</text>
</g>
<!-- AppModule -->
<g id="node8" class="node">
<title>AppModule</title>
<polygon fill="#8dd3c7" stroke="black" points="775.66,-187 772.66,-191 751.66,-191 748.66,-187 692.34,-187 692.34,-151 775.66,-151 775.66,-187"/>
<text text-anchor="middle" x="734" y="-164.8" font-family="Times,serif" font-size="14.00">AppModule</text>
</g>
<!-- AppComponent&#45;&gt;AppModule -->
<g id="edge1" class="edge">
<title>AppComponent&#45;&gt;AppModule</title>
<path fill="none" stroke="black" d="M1267,-122.01C1267,-144.49 1267,-180 1267,-180 1267,-180 785.82,-180 785.82,-180"/>
<polygon fill="black" stroke="black" points="785.82,-176.5 775.82,-180 785.82,-183.5 785.82,-176.5"/>
</g>
<!-- ErrorComponent -->
<g id="node2" class="node">
<title>ErrorComponent</title>
<polygon fill="#ffffb3" stroke="black" points="1196.37,-122 1085.63,-122 1085.63,-86 1196.37,-86 1196.37,-122"/>
<text text-anchor="middle" x="1141" y="-99.8" font-family="Times,serif" font-size="14.00">ErrorComponent</text>
</g>
<!-- ErrorComponent&#45;&gt;AppModule -->
<g id="edge2" class="edge">
<title>ErrorComponent&#45;&gt;AppModule</title>
<path fill="none" stroke="black" d="M1141,-122.13C1141,-142.57 1141,-173 1141,-173 1141,-173 786.02,-173 786.02,-173"/>
<polygon fill="black" stroke="black" points="786.02,-169.5 776.02,-173 786.02,-176.5 786.02,-169.5"/>
</g>
<!-- HeaderComponent -->
<g id="node3" class="node">
<title>HeaderComponent</title>
<polygon fill="#ffffb3" stroke="black" points="1067.74,-122 946.26,-122 946.26,-86 1067.74,-86 1067.74,-122"/>
<text text-anchor="middle" x="1007" y="-99.8" font-family="Times,serif" font-size="14.00">HeaderComponent</text>
</g>
<!-- HeaderComponent&#45;&gt;AppModule -->
<g id="edge3" class="edge">
<title>HeaderComponent&#45;&gt;AppModule</title>
<path fill="none" stroke="black" d="M1007,-122.27C1007,-140.56 1007,-166 1007,-166 1007,-166 785.76,-166 785.76,-166"/>
<polygon fill="black" stroke="black" points="785.76,-162.5 775.76,-166 785.76,-169.5 785.76,-162.5"/>
</g>
<!-- LoginComponent -->
<g id="node4" class="node">
<title>LoginComponent</title>
<polygon fill="#ffffb3" stroke="black" points="928.28,-122 813.72,-122 813.72,-86 928.28,-86 928.28,-122"/>
<text text-anchor="middle" x="871" y="-99.8" font-family="Times,serif" font-size="14.00">LoginComponent</text>
</g>
<!-- LoginComponent&#45;&gt;AppModule -->
<g id="edge4" class="edge">
<title>LoginComponent&#45;&gt;AppModule</title>
<path fill="none" stroke="black" d="M871,-122.01C871,-138.05 871,-159 871,-159 871,-159 785.85,-159 785.85,-159"/>
<polygon fill="black" stroke="black" points="785.85,-155.5 775.85,-159 785.85,-162.5 785.85,-155.5"/>
</g>
<!-- MoviesComponent -->
<g id="node5" class="node">
<title>MoviesComponent</title>
<polygon fill="#ffffb3" stroke="black" points="795.83,-122 672.17,-122 672.17,-86 795.83,-86 795.83,-122"/>
<text text-anchor="middle" x="734" y="-99.8" font-family="Times,serif" font-size="14.00">MoviesComponent</text>
</g>
<!-- MoviesComponent&#45;&gt;AppModule -->
<g id="edge5" class="edge">
<title>MoviesComponent&#45;&gt;AppModule</title>
<path fill="none" stroke="black" d="M734,-122.11C734,-122.11 734,-140.99 734,-140.99"/>
<polygon fill="black" stroke="black" points="730.5,-140.99 734,-150.99 737.5,-140.99 730.5,-140.99"/>
</g>
<!-- ProfileUpdateComponent -->
<g id="node6" class="node">
<title>ProfileUpdateComponent</title>
<polygon fill="#ffffb3" stroke="black" points="653.86,-122 494.14,-122 494.14,-86 653.86,-86 653.86,-122"/>
<text text-anchor="middle" x="574" y="-99.8" font-family="Times,serif" font-size="14.00">ProfileUpdateComponent</text>
</g>
<!-- ProfileUpdateComponent&#45;&gt;AppModule -->
<g id="edge6" class="edge">
<title>ProfileUpdateComponent&#45;&gt;AppModule</title>
<path fill="none" stroke="black" d="M574,-122.01C574,-138.05 574,-159 574,-159 574,-159 681.96,-159 681.96,-159"/>
<polygon fill="black" stroke="black" points="681.96,-162.5 691.96,-159 681.96,-155.5 681.96,-162.5"/>
</g>
<!-- RegisterComponent -->
<g id="node7" class="node">
<title>RegisterComponent</title>
<polygon fill="#ffffb3" stroke="black" points="475.98,-122 348.02,-122 348.02,-86 475.98,-86 475.98,-122"/>
<text text-anchor="middle" x="412" y="-99.8" font-family="Times,serif" font-size="14.00">RegisterComponent</text>
</g>
<!-- RegisterComponent&#45;&gt;AppModule -->
<g id="edge7" class="edge">
<title>RegisterComponent&#45;&gt;AppModule</title>
<path fill="none" stroke="black" d="M412,-122.27C412,-140.56 412,-166 412,-166 412,-166 682.23,-166 682.23,-166"/>
<polygon fill="black" stroke="black" points="682.23,-169.5 692.23,-166 682.23,-162.5 682.23,-169.5"/>
</g>
<!-- AppComponent  -->
<g id="node10" class="node">
<title>AppComponent </title>
<polygon fill="#80b1d3" stroke="black" points="788.44,-252 679.56,-252 679.56,-216 788.44,-216 788.44,-252"/>
<text text-anchor="middle" x="734" y="-229.8" font-family="Times,serif" font-size="14.00">AppComponent </text>
</g>
<!-- AppModule&#45;&gt;AppComponent  -->
<g id="edge9" class="edge">
<title>AppModule&#45;&gt;AppComponent </title>
<path fill="none" stroke="black" stroke-dasharray="1,5" d="M734,-187.11C734,-187.11 734,-205.99 734,-205.99"/>
<polygon fill="black" stroke="black" points="730.5,-205.99 734,-215.99 737.5,-205.99 730.5,-205.99"/>
</g>
<!-- AppRoutingModule -->
<g id="node9" class="node">
<title>AppRoutingModule</title>
<polygon fill="#8dd3c7" stroke="black" points="324.27,-122 321.27,-126 300.27,-126 297.27,-122 195.73,-122 195.73,-86 324.27,-86 324.27,-122"/>
<text text-anchor="middle" x="260" y="-99.8" font-family="Times,serif" font-size="14.00">AppRoutingModule</text>
</g>
<!-- AppRoutingModule&#45;&gt;AppModule -->
<g id="edge8" class="edge">
<title>AppRoutingModule&#45;&gt;AppModule</title>
<path fill="none" stroke="black" d="M260,-122.13C260,-142.57 260,-173 260,-173 260,-173 681.94,-173 681.94,-173"/>
<polygon fill="black" stroke="black" points="681.94,-176.5 691.94,-173 681.94,-169.5 681.94,-176.5"/>
</g>
<!-- ErrorInterceptor -->
<g id="node11" class="node">
<title>ErrorInterceptor</title>
<ellipse fill="#fdb462" stroke="black" cx="98" cy="-104" rx="73.53" ry="18"/>
<text text-anchor="middle" x="98" y="-99.8" font-family="Times,serif" font-size="14.00">ErrorInterceptor</text>
</g>
<!-- ErrorInterceptor&#45;&gt;AppModule -->
<g id="edge10" class="edge">
<title>ErrorInterceptor&#45;&gt;AppModule</title>
<path fill="none" stroke="black" d="M98,-122.01C98,-144.49 98,-180 98,-180 98,-180 682.27,-180 682.27,-180"/>
<polygon fill="black" stroke="black" points="682.27,-183.5 692.27,-180 682.27,-176.5 682.27,-183.5"/>
</g>
</g>
</svg>
